<svg width="45" height="56" viewBox="0 0 45 56" fill="none" xmlns="http://www.w3.org/2000/svg">
<path d="M23.0702 3.34249C21.7027 5.19112 19.5755 8.22998 18.36 10.0533C17.1444 11.9019 16.0555 13.4213 15.9542 13.4213C15.8276 13.4213 14.2322 12.5603 12.4089 11.4967L9.09147 9.57214L7.90126 10.2052C7.24284 10.5598 5.24226 11.6993 3.41895 12.7376L0.126863 14.6369L0.0508917 19.9296L0.000244141 25.1969L4.17866 27.5773C7.47075 29.426 8.35708 30.0337 8.23046 30.3629C7.34413 32.5661 7.01492 38.036 7.57205 40.9229C7.85061 42.4677 7.85061 42.4677 6.96428 43.9365C6.17924 45.2533 6.07795 45.6332 6.07795 47.0766C6.10327 51.1537 9.49665 53.8127 13.6244 52.9517C15.0426 52.6478 15.0932 52.6478 16.8405 53.5342C22.2598 56.2438 29.3505 56.2438 34.7444 53.5342C38.9482 51.4323 41.3539 48.7733 43.3039 44.1897C45.1019 39.9606 44.9752 33.8829 42.9747 28.2357C42.0124 25.5261 40.1637 21.4237 38.6443 18.6887C37.3021 16.2323 37.3021 16.2323 37.8086 15.7765C38.4924 15.1434 39.2521 13.472 39.2521 12.459C39.2521 11.5221 38.6696 10.0026 38.0365 9.29357C36.9223 8.05271 34.3646 7.47026 33.0984 8.12868C32.4653 8.48321 32.5919 8.60983 28.92 3.5704C27.4765 1.62048 26.1344 -0.000244141 25.9318 -0.000244141C25.7292 -0.000244141 24.4377 1.51918 23.0702 3.34249ZM28.0336 4.48206C29.1479 6.00148 30.3381 7.64753 30.6926 8.17933L31.3257 9.11631L30.718 10.3318C29.0972 13.472 31.503 17.1186 35.0736 16.9413C35.6814 16.8907 36.2385 16.916 36.2892 16.992C36.6944 17.4478 39.4293 22.9431 40.3916 25.1969C42.4175 29.9071 43.1013 32.5408 43.2279 36.2634C43.3292 38.7957 43.2785 39.8847 42.924 41.3281C41.6831 46.4435 38.3404 50.6219 33.8075 52.6732C29.0213 54.8257 22.2092 54.775 17.6003 52.5212C16.1062 51.7868 16.0049 51.6349 16.562 51.1791C17.2964 50.546 18.0308 48.5454 18.0308 47.1019C18.0054 44.4429 16.3594 42.1385 13.903 41.4294C12.2569 40.9229 11.8011 40.9229 10.307 41.3788C9.64859 41.5814 9.06615 41.632 8.96485 41.5054C8.88888 41.3788 8.71162 40.2645 8.55967 38.9983C8.33176 37.0737 8.35708 36.2887 8.71162 34.0602C9.37003 29.9324 9.14212 30.2616 13.3712 27.8306C15.4224 26.6657 17.271 25.7034 17.4736 25.7034C17.6762 25.7034 19.2463 26.4884 20.9683 27.476L24.0578 29.2487V32.794C24.0578 36.39 24.2098 37.0991 24.9695 36.7952C25.248 36.6939 25.324 35.9342 25.324 33.4018V30.135H25.9571H26.5902V33.4271C26.5902 36.4913 26.6155 36.7192 27.0713 36.7192C27.7804 36.7192 27.8564 36.2634 27.8564 32.5661V29.2234L30.718 27.6026C34.3393 25.5514 34.947 25.1209 34.947 24.6651C34.947 24.0573 33.9594 24.2852 32.2121 25.2982C31.2751 25.83 30.1102 26.5137 29.629 26.767C29.1479 27.0455 28.1096 27.628 27.3246 28.0838L25.9064 28.8688L22.0826 26.6657L18.2333 24.4625V19.7776C18.2333 15.4726 18.1827 15.0674 17.7269 14.5609L17.2204 14.0291L19.5755 10.4838C21.728 7.24235 25.7292 1.77242 25.9318 1.77242C25.9824 1.77242 26.9447 2.98796 28.0336 4.48206ZM36.0866 9.47084C36.5677 9.67343 37.2008 10.2306 37.4794 10.6864C39.0748 13.32 36.5171 16.4602 33.6049 15.4219C32.3387 14.9661 31.6296 14.0544 31.4777 12.6363C31.2244 10.1293 33.6555 8.45789 36.0866 9.47084ZM10.383 11.8006C11.0161 12.1552 12.1303 12.7882 12.8647 13.1934C16.8405 15.4219 16.562 15.1687 16.7392 16.992C16.8405 17.8783 16.8405 19.9296 16.7646 21.5503L16.638 24.4878L15.3464 25.2475C14.6374 25.6527 12.9407 26.6403 11.5479 27.4507L9.06615 28.8942L5.16629 26.6657L1.26643 24.4372L1.31708 19.8789L1.39305 15.346L5.065 13.2441C7.0909 12.1045 8.86356 11.1675 8.99018 11.1422C9.14212 11.1422 9.74989 11.4461 10.383 11.8006ZM13.4472 42.5943C15.6503 43.3287 16.7139 44.8735 16.7139 47.3045C16.7139 48.5707 16.5873 48.9759 15.9542 49.8369C13.4218 53.3569 7.79996 52.0654 7.39478 47.8617C7.21751 45.9624 7.49608 44.9747 8.55967 43.8858C9.95248 42.4424 11.6998 41.9865 13.4472 42.5943Z" fill="#0C4344"/>
</svg>
